:SAMPLES-PER-SECOND 30
:FULLY-SPECIFIED
:DEGREES
417
root  -5.09445 34.4823 2.38143 5.57267 47.7439 -0.840798
LeftUpLeg  -6.80504 15.1677 3.22375
LeftLeg  11.9653 20.6556 2.93865
LeftFoot  3.00888 -0.03031 1.14425
LeftToes  -17.6979 6.91067e-007 1.07128e-007
Spine  1.17666 -0.850203 0.755158
Spine1  2.28222 -1.66998 1.4316
RightShoulder  0.0210521 10.7254 -2.676
RightArm  -24.213 9.90798 89.4715
RightForeArm  31.0341 -0.0946653 -0.00688292
RightHand  1.24612 -10.5086 -13.1101
LeftShoulder1  0.0103518 -10.5186 1.39796
LeftArm  43.5743 -6.96646 -79.3158
LeftForeArm  49.1095 -75.0157 -41.5998
LeftHand  0.125035 1.0817 12.7358
HEad  -10.9027 -56.4513 16.389
RightUpLeg  -8.80124 -12.0982 0.321836
RightLeg  5.62389 7.05832 0.240578
RightFoot  6.34204 -0.0214541 0.775981
RightToes  -27.4894 -0.127021 -0.234144
418
root  -5.25456 34.488 2.53161 5.82818 46.8768 -0.689259
LeftUpLeg  -6.83622 15.3898 3.43637
LeftLeg  11.9432 21.2481 3.01082
LeftFoot  3.56366 -0.0434911 1.39795
LeftToes  -18.5061 6.91067e-007 1.07128e-007
Spine  1.24398 -1.10185 0.906438
Spine1  2.41633 -2.18102 1.73059
RightShoulder  0.0191801 10.4893 -2.54834
RightArm  -25.7833 9.82219 89.1412
RightForeArm  32.109 -0.0951992 -0.00705017
RightHand  1.13589 -11.1058 -11.2672
LeftShoulder1  0.0116844 -10.1492 1.49331
LeftArm  43.673 -7.35239 -79.1433
LeftForeArm  59.9296 -77.4535 -53.0606
LeftHand  0.231128 2.23994 11.3759
HEad  -10.6957 -56.5694 15.9737
RightUpLeg  -9.13704 -12.0797 0.645758
RightLeg  5.82565 7.95554 0.298937
RightFoot  6.13781 -0.0239071 0.848164
RightToes  -26.6303 -0.121419 -0.227878
419
root  -5.42453 34.4801 2.67095 6.02572 46.0654 -0.525962
LeftUpLeg  -6.96021 15.7255 3.65197
LeftLeg  12.2251 21.6554 3.17169
LeftFoot  3.90407 -0.0522921 1.56492
LeftToes  -19.0259 6.91067e-007 1.07128e-007
Spine  1.35212 -1.32152 1.0033
Spine1  2.61555 -2.6126 1.89982
RightShoulder  0.025146 10.473 -2.36162
RightArm  -26.7006 9.93879 88.7638
RightForeArm  32.0766 -0.0957454 -0.00722687
RightHand  1.14515 -11.7029 -10.7632
LeftShoulder1  0.0128172 -10.101 1.58006
LeftArm  43.6581 -7.82678 -78.7845
LeftForeArm  72.5863 -78.9425 -65.6404
LeftHand  0.248256 2.48965 10.9867
HEad  -10.2787 -56.5011 15.4033
RightUpLeg  -9.58549 -12.2159 0.951236
RightLeg  6.38783 8.95366 0.423875
RightFoot  5.72566 -0.0246914 0.894766
RightToes  -25.7512 -0.115785 -0.221379
420
root  -5.58917 34.4623 2.80325 6.16575 45.4082 -0.491689
LeftUpLeg  -7.17387 16.0266 3.92661
LeftLeg  12.5919 21.9631 3.35437
LeftFoot  4.08946 -0.0572426 1.66715
LeftToes  -19.4606 6.91067e-007 1.07128e-007
Spine  1.4281 -1.5557 1.13815
Spine1  2.75649 -3.07722 2.15078
RightShoulder  0.0283023 10.4736 -2.38127
RightArm  -27.1122 10.185 88.6377
RightForeArm  31.7788 -0.096429 -0.0074606
RightHand  1.25007 -11.8053 -11.6708
LeftShoulder1  0.013837 -10.0597 1.88521
LeftArm  44.4458 -8.48954 -79.2729
LeftForeArm  69.2609 -78.6503 -62.4671
LeftHand  0.211279 1.7436 13.3942
HEad  -10.5964 -56.3698 15.3368
RightUpLeg  -9.94471 -12.546 1.35011
RightLeg  6.72864 10.0015 0.532415
RightFoot  5.36545 -0.0256942 0.940676
RightToes  -24.8838 -0.110323 -0.214882
421
root  -5.75047 34.4353 2.93166 6.38787 44.7635 -0.546894
LeftUpLeg  -7.64639 16.5006 4.21873
LeftLeg  13.2209 22.1046 3.61685
LeftFoot  4.06077 -0.0564698 1.67193
LeftToes  -19.7962 6.91067e-007 1.07128e-007
Spine  1.50855 -1.7356 1.29523
Spine1  2.89334 -3.41425 2.42277
RightShoulder  0.0396984 10.6774 -1.99134
RightArm  -26.6275 10.5481 88.1379
RightForeArm  30.7705 -0.0973746 -0.00779893
RightHand  1.34163 -10.9424 -13.5606
LeftShoulder1  0.0148303 -10.2641 2.15076
LeftArm  44.2808 -8.47924 -80.4326
LeftForeArm  51.0677 -76.031 -45.6102
LeftHand  0.0215359 0.159564 14.3831
HEad  -11.5038 -56.1108 15.8281
RightUpLeg  -10.4255 -12.6627 1.82112
RightLeg  7.03209 10.8413 0.633945
RightFoot  5.01525 -0.0254792 0.959201
RightToes  -24.2079 -0.106137 -0.209764
422
root  -5.89662 34.4117 3.04491 6.6525 44.2185 -0.520692
LeftUpLeg  -8.2004 16.8289 4.4278
LeftLeg  14.0553 22.2355 3.9611
LeftFoot  3.9402 -0.0538687 1.63625
LeftToes  -19.9459 6.91067e-007 1.07128e-007
Spine  1.57471 -1.90588 1.42763
Spine1  3.01122 -3.75721 2.67307
RightShoulder  0.0420512 10.4048 -1.53661
RightArm  -26.1365 10.8246 87.8028
RightForeArm  30.3961 -0.0987074 -0.00828929
RightHand  1.36855 -10.2947 -14.7259
LeftShoulder1  0.015884 -10.5615 1.81342
LeftArm  43.7469 -8.26763 -81.5429
LeftForeArm  40.4336 -71.4209 -31.8754
LeftHand  -0.210244 -1.50608 15.5942
HEad  -12.621 -56.0424 16.4713
RightUpLeg  -10.9398 -13.2923 2.21446
RightLeg  7.46918 12.1417 0.801355
RightFoot  4.62158 -0.0266167 0.99424
RightToes  -23.5078 -0.101706 -0.20441
423
root  -6.01696 34.3845 3.13956 6.7782 43.7393 -0.46868
LeftUpLeg  -8.81266 17.0214 4.59739
LeftLeg  15.3826 22.4015 4.51114
LeftFoot  3.54319 -0.0451148 1.48929
LeftToes  -19.6832 6.91067e-007 1.07128e-007
Spine  1.6682 -2.12134 1.54621
Spine1  3.17606 -4.18485 2.88345
RightShoulder  0.0477527 10.2294 -1.12445
RightArm  -26.2136 10.9895 87.4587
RightForeArm  30.6839 -0.100552 -0.00897928
RightHand  1.29411 -9.39347 -15.2737
LeftShoulder1  0.0170847 -10.7686 1.71428
LeftArm  43.1786 -8.19717 -82.4509
LeftForeArm  34.6978 -67.401 -25.213
LeftHand  -0.0454696 -0.367334 14.0052
HEad  -13.4732 -55.9584 16.7431
RightUpLeg  -11.4136 -14.2288 2.51731
RightLeg  8.21736 13.6767 1.07889
RightFoot  4.04799 -0.0249547 0.98779
RightToes  -22.9244 -0.0983541 -0.19991
424
root  -6.11219 34.362 3.21566 6.8828 43.3491 -0.362196
LeftUpLeg  -9.49253 17.0079 4.66162
LeftLeg  16.9407 22.6651 5.18638
LeftFoot  2.98404 -0.0331761 1.27366
LeftToes  -18.5857 6.91067e-007 1.07128e-007
Spine  1.80861 -2.42418 1.6565
Spine1  3.4379 -4.81584 3.09991
RightShoulder  0.0457281 9.85557 -1.09108
RightArm  -26.0419 11.2201 87.6533
RightForeArm  31.7631 -0.103909 -0.0102666
RightHand  1.26466 -8.72536 -16.0815
LeftShoulder1  0.0185192 -11.2167 1.69715
LeftArm  42.8892 -7.95983 -81.635
LeftForeArm  35.2855 -68.399 -26.6106
LeftHand  -0.0761988 -0.607915 14.0784
HEad  -13.7464 -55.8371 16.1595
RightUpLeg  -11.6793 -14.6542 2.68319
RightLeg  8.67241 14.5911 1.26506
RightFoot  3.67632 -0.0216993 0.957801
RightToes  -22.6936 -0.0968134 -0.198128
425
root  -6.19305 34.3637 3.26337 6.91903 42.9378 -0.252243
LeftUpLeg  -10.2084 17.0121 4.63771
LeftLeg  18.6212 22.9463 5.93672
LeftFoot  2.21783 -0.0185604 0.958835
LeftToes  -15.8663 6.91067e-007 1.07128e-007
Spine  1.95461 -2.75461 1.82581
Spine1  3.73254 -5.54353 3.48538
RightShoulder  0.0271954 8.77044 -1.78054
RightArm  -25.6062 11.322 88.69
RightForeArm  31.9923 0.703387 0.130835
RightHand  1.31777 -9.34171 -15.6435
LeftShoulder1  0.0204524 -11.1094 1.88492
LeftArm  42.9899 -7.93547 -80.7432
LeftForeArm  43.3454 -72.4407 -34.1331
LeftHand  0.0525187 0.416518 13.7752
HEad  -14.1429 -55.8168 15.4318
RightUpLeg  -11.6437 -14.6386 2.7666
RightLeg  8.56858 15.0002 1.27273
RightFoot  3.66074 -0.0213604 0.97349
RightToes  -22.3058 -0.0958941 -0.197054
426
root  -6.2584 34.3705 3.27535 6.93193 42.3802 -0.0214459
LeftUpLeg  -11.0846 17.1136 4.4181
LeftLeg  20.7903 23.4114 6.97035
LeftFoot  1.39054 -0.00745935 0.614665
LeftToes  -12.0406 6.91067e-007 1.07128e-007
Spine  2.14536 -2.9477 1.95843
Spine1  4.10111 -5.95036 3.74199
RightShoulder  0.0252871 8.23272 -1.80033
RightArm  -25.8741 11.3941 88.6916
RightForeArm  32.1437 1.20173 0.21797
RightHand  1.30587 -9.66774 -14.97
LeftShoulder1  0.0223937 -10.6962 2.00016
LeftArm  43.1721 -8.24223 -80.2696
LeftForeArm  54.6888 -76.0225 -45.5782
LeftHand  0.0984794 0.845745 12.8087
HEad  -14.4364 -55.9617 15.0244
RightUpLeg  -11.5897 -14.1903 2.65939
RightLeg  8.57003 15.0743 1.27927
RightFoot  3.73799 -0.0215497 0.997023
RightToes  -22.1104 -0.0955089 -0.196592
